<?xml version="1.0" standalone="no"?>
<svg xmlns="http://www.w3.org/2000/svg" viewBox="0 0 104.154 120.266" width="104.154" height="120.266"><polygon fill="#4299e1" points="104.154,30.0665 104.154,90.1995 52.077,120.266 0,90.1995 0,30.0665 52.077,0"></polygon><g fill="white" color="white" transform="translate(30.076999999999998 22.5) scale(0.8461539)"><svg width="52.0" height="47.0" x="0.0" y="0.0" viewBox="0 0 52 47"><path fill="currentColor" fill-rule="evenodd" d="M48.193 38.37a8.28 8.28 0 0 1-5.751 2.766 8.297 8.297 0 0 1-6.022-2.11 10.943 10.943 0 0 1-.604-.59c1.525-3.49 2.35-7.694 2.35-12.104 0-1.54-.104-3.055-.3-4.524 3.891 1.05 7.871 3.177 9.673 4.789a8.283 8.283 0 0 1 2.766 5.751 8.28 8.28 0 0 1-2.112 6.022m-29.49 2.713c-1.44-2.106-2.568-4.836-3.246-7.949 9.388 5.439 17.944 1.354 20.743-.312-.656 3.178-1.78 5.97-3.225 8.126-6.945 2.398-12.128.983-14.271.135m-3.485-2.058c-3.427 3.066-8.71 2.772-11.775-.655a8.28 8.28 0 0 1-2.11-6.022 8.284 8.284 0 0 1 2.765-5.751c1.736-1.553 5.625-3.69 9.624-4.775a34.302 34.302 0 0 0-.299 4.51c0 4.425.83 8.64 2.365 12.138-.203.21-.395.397-.57.555m.388-20.16c1.786.934 5.276 2.37 9.89 2.37 3.055 0 6.601-.632 10.465-2.454.569 2.316.885 4.863.886 7.536-11.23 5.745-19.741 1.54-22.105.103v-.09c0-2.645.307-5.168.864-7.465M25.796 7.082c3.346 0 6.347 2.605 8.375 6.709-9.167 4.553-15.893.6-16.77.037 2.028-4.124 5.038-6.746 8.395-6.746M51.62 32.275a9.585 9.585 0 0 0-3.203-6.66c-2.315-2.073-6.86-4.263-10.768-5.22-.566-3.163-1.586-6.065-3.004-8.474-1.055-1.793-2.277-3.219-3.607-4.248l1.395-4.209A1.734 1.734 0 0 0 32.312 0a1.736 1.736 0 0 0-1.131 3.05L29.9 6.91c-1.3-.75-2.682-1.145-4.107-1.145-1.35 0-2.664.357-3.903 1.033L20.648 3.05a1.735 1.735 0 1 0-1.252.414l1.348 4.066c-1.406 1.036-2.695 2.51-3.8 4.39-1.42 2.412-2.44 5.317-3.006 8.483-3.863.955-8.45 3.181-10.72 5.21a9.593 9.593 0 0 0-3.203 6.66 9.591 9.591 0 0 0 2.446 6.975 9.629 9.629 0 0 0 7.2 3.213 9.618 9.618 0 0 0 6.73-2.732c.177.345.359.684.552 1.012 2.335 3.97 5.479 6.156 8.85 6.156 3.37 0 6.513-2.186 8.85-6.156.197-.337.386-.687.568-1.044a9.615 9.615 0 0 0 6.761 2.764 9.636 9.636 0 0 0 7.202-3.214 9.588 9.588 0 0 0 2.446-6.973"></path></svg></g><path fill="white" fill-rule="nonzero" d="M3.11 27.50Q1.54 27.50 0.77 26.96Q0 26.43 0 25.26L0 25.26Q0 25.17 0.14 25.17L0.14 25.17Q0.25 25.17 0.81 25.31Q1.37 25.45 2.77 25.45L2.77 25.45Q5.88 25.45 8.44 24.51Q11.00 23.58 12.46 22.04Q13.92 20.50 13.92 18.82L13.92 18.82Q13.92 16.77 11.90 16.03Q9.88 15.29 6.86 15.29L6.86 15.29L4.76 15.32Q4.34 16.74 3.56 19.60L3.56 19.60Q2.97 21.78 2.24 24.33L2.24 24.33Q1.54 24.33 1.06 23.94Q0.59 23.55 0.59 22.99L0.59 22.99Q0.59 22.62 0.76 22.09Q0.92 21.56 0.98 21.39L0.98 21.39Q1.85 18.48 3.60 13.62Q5.35 8.76 6.92 5.68L6.92 5.68Q5.26 5.96 3.67 6.92L3.67 6.92Q3.16 7.20 3.05 7.20L3.05 7.20Q2.83 7.20 2.49 6.92Q2.16 6.64 2.16 6.44L2.16 6.44Q4.00 5.68 5.42 5.29Q6.83 4.90 8.79 4.90L8.79 4.90Q11.37 4.90 13.31 5.84Q15.26 6.78 15.26 9.35L15.26 9.35Q15.26 11.84 13.40 13.10Q11.54 14.36 8.85 14.81L8.85 14.81Q15.23 15.20 15.23 19.32L15.23 19.32Q15.23 21.84 13.19 23.70Q11.14 25.56 8.27 26.53Q5.40 27.50 3.11 27.50L3.11 27.50ZM4.93 14.67Q8.54 14.56 11.06 13.24Q13.58 11.93 13.58 9.13L13.58 9.13Q13.58 5.49 8.85 5.49L8.85 5.49Q8.48 5.49 8.32 5.52L8.32 5.52Q6.66 8.74 4.93 14.67L4.93 14.67ZM16.97 27.50Q16.02 26.96 16.02 26.04L16.02 26.04Q16.02 24.95 17.18 22.62Q18.34 20.30 20.27 17.28L20.27 17.28Q18.56 17.14 17.25 17.14L17.25 17.14L16.27 17.14Q16.80 15.68 19.18 15.68L19.18 15.68Q19.94 15.68 21.20 15.88L21.20 15.88Q23.35 12.63 25.58 9.76Q27.80 6.89 29.09 5.68L29.09 5.68Q29.90 4.90 30.44 4.90L30.44 4.90Q31.02 4.90 31.92 5.80L31.92 5.80Q31.36 6.24 30.30 9.42Q29.23 12.60 28.39 16.37Q27.55 20.13 27.55 22.43L27.55 22.43Q27.55 23.55 27.79 24.11Q28.03 24.67 28.59 24.67L28.59 24.67Q30.13 24.67 32.26 20.52L32.26 20.52L32.54 20.80Q31.67 23.10 30.37 24.50Q29.06 25.90 27.69 25.90L27.69 25.90Q26.57 25.90 26.04 24.91Q25.51 23.91 25.51 22.15L25.51 22.15Q25.51 20.36 25.98 17.98L25.98 17.98Q24.19 17.70 21.84 17.42L21.84 17.42Q19.10 22.46 16.97 27.50L16.97 27.50ZM26.18 17.00Q26.77 14.36 27.69 11.54Q28.62 8.71 29.54 6.66L29.54 6.66Q28.28 7.45 26.45 9.97Q24.61 12.49 22.57 16.13L22.57 16.13Q23.69 16.35 24.92 16.69L24.92 16.69L26.18 17.00ZM31.42 4.12Q30.35 2.66 28.28 0.87L28.28 0.87Q28.36 0 28.90 0L28.90 0Q29.40 0 30.09 0.67Q30.77 1.34 31.29 2.20Q31.81 3.05 31.81 3.39L31.81 3.39Q31.81 3.56 31.71 3.79Q31.61 4.03 31.42 4.12L31.42 4.12ZM36.60 27.50Q35.42 27.41 35.06 26.88Q34.69 26.35 34.69 25.28L34.69 25.28Q34.69 24.11 35.25 22.32Q35.81 20.52 36.99 17.30L36.99 17.30Q37.16 16.91 37.44 16.13L37.44 16.13Q36.74 16.18 35.28 16.38L35.28 16.38L34.33 16.52Q34.44 14.67 38.00 14.56L38.00 14.56Q39.82 9.55 41.24 6.58L41.24 6.58Q40.52 6.52 40.15 6.52L40.15 6.52Q38.36 6.52 37.39 6.89Q36.43 7.25 36.05 7.98Q35.67 8.71 35.67 9.94L35.67 9.94Q35.67 11.09 36.04 12.15L36.04 12.15Q34.19 11.84 34.19 9.97L34.19 9.97Q34.19 8.54 35.21 7.42Q36.23 6.30 38.00 5.67Q39.76 5.04 41.89 5.04L41.89 5.04Q42.92 5.04 44.83 5.26L44.83 5.26Q45.11 5.29 45.95 5.38Q46.79 5.46 47.46 5.46L47.46 5.46Q48.58 5.46 49.53 5.18L49.53 5.18Q48.55 6.30 47.85 6.72Q47.15 7.14 46.37 7.14L46.37 7.14Q45.84 7.14 44.46 6.94L44.46 6.94Q43.76 6.80 42.39 6.66L42.39 6.66Q41.61 8.57 39.70 14.59L39.70 14.59Q41.05 14.67 42.22 14.84L42.22 14.84Q43.99 15.01 44.60 15.04L44.60 15.04Q44.30 15.48 43.86 15.67Q43.43 15.85 42.52 15.90Q41.61 15.96 39.28 16.02L39.28 16.02L38.05 20.19Q36.65 24.89 36.60 27.50L36.60 27.50Z" transform="translate(27.311, 70.27)"></path></svg>