<?xml version="1.0" standalone="no"?>
<svg xmlns="http://www.w3.org/2000/svg" viewBox="0 0 151.416 36" width="151.416" height="36"><g fill="#FFFFFF" color="#FFFFFF" transform="translate(0 5.346153846153847) scale(0.5384616)"><svg width="52.0" height="47.0" x="0.0" y="0.0" viewBox="0 0 52 47"><path fill="currentColor" fill-rule="evenodd" d="M48.193 38.37a8.28 8.28 0 0 1-5.751 2.766 8.297 8.297 0 0 1-6.022-2.11 10.943 10.943 0 0 1-.604-.59c1.525-3.49 2.35-7.694 2.35-12.104 0-1.54-.104-3.055-.3-4.524 3.891 1.05 7.871 3.177 9.673 4.789a8.283 8.283 0 0 1 2.766 5.751 8.28 8.28 0 0 1-2.112 6.022m-29.49 2.713c-1.44-2.106-2.568-4.836-3.246-7.949 9.388 5.439 17.944 1.354 20.743-.312-.656 3.178-1.78 5.97-3.225 8.126-6.945 2.398-12.128.983-14.271.135m-3.485-2.058c-3.427 3.066-8.71 2.772-11.775-.655a8.28 8.28 0 0 1-2.11-6.022 8.284 8.284 0 0 1 2.765-5.751c1.736-1.553 5.625-3.69 9.624-4.775a34.302 34.302 0 0 0-.299 4.51c0 4.425.83 8.64 2.365 12.138-.203.21-.395.397-.57.555m.388-20.16c1.786.934 5.276 2.37 9.89 2.37 3.055 0 6.601-.632 10.465-2.454.569 2.316.885 4.863.886 7.536-11.23 5.745-19.741 1.54-22.105.103v-.09c0-2.645.307-5.168.864-7.465M25.796 7.082c3.346 0 6.347 2.605 8.375 6.709-9.167 4.553-15.893.6-16.77.037 2.028-4.124 5.038-6.746 8.395-6.746M51.62 32.275a9.585 9.585 0 0 0-3.203-6.66c-2.315-2.073-6.86-4.263-10.768-5.22-.566-3.163-1.586-6.065-3.004-8.474-1.055-1.793-2.277-3.219-3.607-4.248l1.395-4.209A1.734 1.734 0 0 0 32.312 0a1.736 1.736 0 0 0-1.131 3.05L29.9 6.91c-1.3-.75-2.682-1.145-4.107-1.145-1.35 0-2.664.357-3.903 1.033L20.648 3.05a1.735 1.735 0 1 0-1.252.414l1.348 4.066c-1.406 1.036-2.695 2.51-3.8 4.39-1.42 2.412-2.44 5.317-3.006 8.483-3.863.955-8.45 3.181-10.72 5.21a9.593 9.593 0 0 0-3.203 6.66 9.591 9.591 0 0 0 2.446 6.975 9.629 9.629 0 0 0 7.2 3.213 9.618 9.618 0 0 0 6.73-2.732c.177.345.359.684.552 1.012 2.335 3.97 5.479 6.156 8.85 6.156 3.37 0 6.513-2.186 8.85-6.156.197-.337.386-.687.568-1.044a9.615 9.615 0 0 0 6.761 2.764 9.636 9.636 0 0 0 7.202-3.214 9.588 9.588 0 0 0 2.446-6.973"></path></svg></g><path fill="#FFF" fill-rule="nonzero" d="M2.66 19.37Q1.32 19.37 0.66 18.91Q0 18.46 0 17.45L0 17.45Q0 17.38 0.12 17.38L0.12 17.38Q0.22 17.38 0.70 17.50Q1.18 17.62 2.38 17.62L2.38 17.62Q5.04 17.62 7.24 16.81Q9.43 16.01 10.68 14.69Q11.93 13.37 11.93 11.93L11.93 11.93Q11.93 10.18 10.20 9.54Q8.47 8.90 5.88 8.90L5.88 8.90L4.08 8.93Q3.72 10.15 3.05 12.60L3.05 12.60Q2.54 14.47 1.92 16.66L1.92 16.66Q1.32 16.66 0.91 16.32Q0.50 15.98 0.50 15.50L0.50 15.50Q0.50 15.19 0.65 14.74Q0.79 14.28 0.84 14.14L0.84 14.14Q1.58 11.64 3.08 7.48Q4.58 3.31 5.93 0.67L5.93 0.67Q4.51 0.91 3.14 1.73L3.14 1.73Q2.71 1.97 2.62 1.97L2.62 1.97Q2.42 1.97 2.14 1.73Q1.85 1.49 1.85 1.32L1.85 1.32Q3.43 0.67 4.64 0.34Q5.86 0 7.54 0L7.54 0Q9.74 0 11.41 0.80Q13.08 1.61 13.08 3.82L13.08 3.82Q13.08 5.95 11.48 7.03Q9.89 8.11 7.58 8.50L7.58 8.50Q13.06 8.83 13.06 12.36L13.06 12.36Q13.06 14.52 11.30 16.12Q9.55 17.71 7.09 18.54Q4.63 19.37 2.66 19.37L2.66 19.37ZM4.22 8.38Q7.32 8.28 9.48 7.15Q11.64 6.02 11.64 3.62L11.64 3.62Q11.64 0.50 7.58 0.50L7.58 0.50Q7.27 0.50 7.13 0.53L7.13 0.53Q5.71 3.29 4.22 8.38L4.22 8.38ZM15.79 18.05Q14.81 18.05 14.35 17.45Q13.90 16.85 13.90 15.86L13.90 15.86Q13.90 14.88 14.30 13.80Q14.71 12.72 15.36 12Q16.01 11.28 16.66 11.28L16.66 11.28Q16.87 11.28 17.16 11.40L17.16 11.40Q16.87 11.64 16.46 12.46Q16.06 13.27 15.76 14.20Q15.46 15.12 15.46 15.70L15.46 15.70Q15.46 17.06 16.32 17.06L16.32 17.06Q16.82 17.06 17.52 16.54Q18.22 16.01 18.89 15.14L18.89 15.14Q18.22 14.59 17.84 13.70Q17.47 12.82 17.47 11.86L17.47 11.86Q17.47 10.61 18.11 9.72Q18.74 8.83 19.82 8.83L19.82 8.83Q20.74 8.83 21.11 9.32Q21.48 9.82 21.48 10.68L21.48 10.68Q21.48 11.59 21.04 12.73Q20.59 13.87 19.87 14.95L19.87 14.95Q20.30 15.19 20.78 15.19L20.78 15.19Q21.48 15.19 22.22 14.77Q22.97 14.35 23.35 13.46L23.35 13.46L23.64 13.70Q23.18 14.76 22.34 15.26Q21.50 15.77 20.62 15.77L20.62 15.77Q19.97 15.77 19.46 15.53L19.46 15.53Q18.60 16.66 17.63 17.35Q16.66 18.05 15.79 18.05L15.79 18.05ZM19.32 14.52Q19.94 13.58 20.33 12.61Q20.71 11.64 20.71 10.82L20.71 10.82Q20.71 10.15 20.51 9.82Q20.30 9.48 19.99 9.48L19.99 9.48Q19.66 9.48 19.31 9.80Q18.96 10.13 18.73 10.69Q18.50 11.26 18.50 11.93L18.50 11.93Q18.50 12.67 18.71 13.36Q18.91 14.04 19.32 14.52L19.32 14.52ZM27.50 6.91Q27.07 6.91 26.80 6.71Q26.52 6.50 26.52 6.12L26.52 6.12Q26.52 5.64 27.10 5.26Q27.67 4.87 28.27 4.87L28.27 4.87Q29.06 4.87 29.06 5.62L29.06 5.62Q29.06 6.07 28.57 6.49Q28.08 6.91 27.50 6.91L27.50 6.91ZM24.62 17.90Q23.74 17.90 23.26 17.34Q22.78 16.78 22.78 15.89L22.78 15.89Q22.78 14.95 23.32 13.30Q23.86 11.64 24.66 10.39Q25.46 9.14 26.23 9.14L26.23 9.14Q26.45 9.14 26.60 9.29Q26.76 9.43 26.76 9.67L26.76 9.67Q26.76 10.01 25.99 11.28L25.99 11.28Q25.20 12.60 24.73 13.64Q24.26 14.69 24.26 15.62L24.26 15.62Q24.26 16.46 24.54 16.76Q24.82 17.06 25.44 17.06L25.44 17.06Q27.31 17.06 29.14 13.39L29.14 13.39L29.35 13.63Q28.68 15.65 27.37 16.78Q26.06 17.90 24.62 17.90L24.62 17.90ZM30.72 18.38Q28.58 18.38 28.58 16.01L28.58 16.01Q28.58 14.98 28.96 13.45Q29.33 11.93 29.98 10.22L29.98 10.22Q29.40 10.13 29.11 10.03L29.11 10.03L29.11 9.60Q29.98 9.70 30.17 9.70L30.17 9.70Q31.22 6.96 32.44 4.96Q33.65 2.95 34.34 2.95L34.34 2.95Q34.54 2.95 34.69 3.10Q34.85 3.24 34.85 3.48L34.85 3.48Q34.85 3.79 34.55 4.39Q34.25 4.99 33.53 6.24L33.53 6.24Q33.41 6.48 32.78 7.57Q32.16 8.66 31.66 9.77L31.66 9.77L32.54 9.77Q34.54 9.77 35.98 9.62L35.98 9.62L35.98 10.06Q33.36 10.34 31.75 10.34L31.75 10.34L31.39 10.34Q30.07 13.37 30.07 15.58L30.07 15.58Q30.07 16.61 30.38 17.05Q30.70 17.50 31.42 17.50L31.42 17.50Q32.64 17.50 33.84 16.40Q35.04 15.31 35.98 13.39L35.98 13.39L36.29 13.63Q35.40 15.72 33.89 17.05Q32.38 18.38 30.72 18.38L30.72 18.38ZM38.11 18.34Q36.70 18.34 35.94 17.56Q35.18 16.78 35.18 15.55L35.18 15.55Q35.18 14.14 36.12 12.50Q37.06 10.87 38.48 9.76Q39.91 8.64 41.28 8.64L41.28 8.64Q42.77 8.64 42.77 10.10L42.77 10.10Q42.77 11.28 41.88 12.30Q40.99 13.32 39.60 13.97Q38.21 14.62 36.82 14.76L36.82 14.76Q36.72 15.17 36.72 15.62L36.72 15.62Q36.72 16.49 37.15 17.06Q37.58 17.64 38.62 17.64L38.62 17.64Q40.08 17.64 41.57 16.42Q43.06 15.19 43.99 13.39L43.99 13.39L44.28 13.61Q43.32 15.74 41.62 17.04Q39.91 18.34 38.11 18.34L38.11 18.34ZM36.94 14.30Q37.94 13.94 39.05 13.30Q40.15 12.65 40.93 11.77Q41.71 10.90 41.71 9.94L41.71 9.94Q41.71 9.65 41.60 9.52Q41.50 9.38 41.21 9.38L41.21 9.38Q40.46 9.38 39.59 10.13Q38.71 10.87 37.98 12.02Q37.25 13.18 36.94 14.30L36.94 14.30ZM50.90 18.41Q50.11 18.41 49.62 17.89Q49.13 17.38 49.13 16.42L49.13 16.42Q49.13 15 50.15 13.25Q51.17 11.50 52.73 10.27Q54.29 9.05 55.78 9.05L55.78 9.05Q56.71 9.05 57.34 9.55Q57.96 10.06 57.96 10.85L57.96 10.85Q57.96 11.40 57.65 11.64Q57.34 11.88 56.78 11.88L56.78 11.88Q56.90 11.45 56.90 11.04L56.90 11.04Q56.90 10.44 56.62 10.07Q56.33 9.70 55.73 9.70L55.73 9.70Q54.67 9.70 53.51 10.87Q52.34 12.05 51.56 13.68Q50.78 15.31 50.78 16.49L50.78 16.49Q50.78 17.42 51.43 17.42L51.43 17.42Q52.39 17.42 53.69 15.90Q54.98 14.38 56.47 12.19L56.47 12.19Q56.78 12.24 57.11 12.40Q57.43 12.55 57.43 12.79L57.43 12.79Q57.43 12.98 57.20 13.40Q56.98 13.82 56.93 13.90L56.93 13.90Q56.52 14.59 56.28 15.13Q56.04 15.67 56.04 16.13L56.04 16.13Q56.04 16.54 56.24 16.86Q56.45 17.18 56.86 17.18L56.86 17.18Q57.55 17.18 58.61 16.19Q59.66 15.19 60.70 13.39L60.70 13.39L60.94 13.63Q60.43 14.90 59.64 15.90Q58.85 16.90 57.94 17.45Q57.02 18 56.18 18L56.18 18Q55.34 18 54.90 17.51Q54.46 17.02 54.46 16.32L54.46 16.32Q54.46 16.01 54.53 15.62L54.53 15.62Q53.45 17.06 52.60 17.74Q51.74 18.41 50.90 18.41L50.90 18.41ZM57.55 7.44Q56.64 6.19 54.86 4.66L54.86 4.66Q54.94 3.91 55.39 3.91L55.39 3.91Q55.82 3.91 56.41 4.49Q57.00 5.06 57.44 5.80Q57.89 6.53 57.89 6.82L57.89 6.82Q57.89 6.96 57.80 7.16Q57.72 7.37 57.55 7.44L57.55 7.44ZM66.14 24Q65.64 24 65.23 23.53Q64.82 23.06 64.82 21.89L64.82 21.89Q64.82 19.37 66.62 13.96Q68.42 8.54 70.84 4.27Q73.25 0 75.10 0L75.10 0Q75.55 0 75.73 0.28Q75.91 0.55 75.91 1.06L75.91 1.06Q75.91 2.38 74.98 4.06Q74.04 5.74 72.55 7.34Q71.06 8.95 69.50 10.03L69.50 10.03Q69.34 10.42 69.05 11.23L69.05 11.23Q69.29 11.28 69.44 11.51Q69.60 11.74 69.65 12L69.65 12Q69.84 13.34 70.03 14.09Q70.22 14.83 70.62 15.29Q71.02 15.74 71.74 15.74L71.74 15.74Q72.53 15.74 73.09 15.19Q73.66 14.64 74.40 13.39L74.40 13.39L74.76 13.63Q74.18 14.98 73.30 15.67Q72.41 16.37 71.62 16.37L71.62 16.37Q71.18 16.37 70.72 16.15Q70.25 15.94 69.84 15.58L69.84 15.58Q69.84 17.54 69.29 19.51Q68.74 21.48 67.88 22.74Q67.03 24 66.14 24L66.14 24ZM69.89 9.05Q71.35 7.70 72.52 6.24Q73.68 4.78 74.33 3.61Q74.98 2.45 74.98 1.94L74.98 1.94Q74.98 1.61 74.64 1.61L74.64 1.61Q73.75 1.61 72.48 3.68Q71.21 5.76 69.89 9.05L69.89 9.05ZM66.77 22.85Q67.20 22.85 67.79 21.62Q68.38 20.40 68.80 18.73Q69.22 17.06 69.22 15.84L69.22 15.84Q69.22 15.12 69.04 14.52Q68.86 13.92 68.40 13.03L68.40 13.03Q67.46 15.79 66.89 18.14Q66.31 20.50 66.31 21.70L66.31 21.70Q66.31 22.25 66.43 22.55Q66.55 22.85 66.77 22.85L66.77 22.85ZM75.94 18Q74.95 18 74.48 17.33Q74.02 16.66 74.02 15.53L74.02 15.53Q74.02 13.37 75.50 9.66Q76.99 5.95 78.83 2.98Q80.66 0 81.48 0L81.48 0Q81.82 0 82.04 0.59Q82.27 1.18 82.27 1.78L82.27 1.78Q82.27 2.88 81.37 5.03Q80.47 7.18 79.01 9.38Q77.54 11.59 75.89 12.96L75.89 12.96Q75.58 14.35 75.58 15.38L75.58 15.38Q75.58 17.23 76.63 17.23L76.63 17.23Q77.52 17.23 78.44 16.10Q79.37 14.98 80.09 13.39L80.09 13.39L80.45 13.58Q78.38 18 75.94 18L75.94 18ZM76.10 12.14Q77.42 10.82 78.68 8.82Q79.94 6.82 80.74 4.98Q81.53 3.14 81.53 2.33L81.53 2.33Q81.53 1.94 81.36 1.94L81.36 1.94Q81.02 1.94 79.98 3.59Q78.94 5.23 77.83 7.61Q76.73 9.98 76.10 12.14L76.10 12.14ZM82.20 18.34Q80.78 18.34 80.03 17.56Q79.27 16.78 79.27 15.55L79.27 15.55Q79.27 14.14 80.21 12.50Q81.14 10.87 82.57 9.76Q84.00 8.64 85.37 8.64L85.37 8.64Q86.86 8.64 86.86 10.10L86.86 10.10Q86.86 11.28 85.97 12.30Q85.08 13.32 83.69 13.97Q82.30 14.62 80.90 14.76L80.90 14.76Q80.81 15.17 80.81 15.62L80.81 15.62Q80.81 16.49 81.24 17.06Q81.67 17.64 82.70 17.64L82.70 17.64Q84.17 17.64 85.66 16.42Q87.14 15.19 88.08 13.39L88.08 13.39L88.37 13.61Q87.41 15.74 85.70 17.04Q84.00 18.34 82.20 18.34L82.20 18.34ZM81.02 14.30Q82.03 13.94 83.14 13.30Q84.24 12.65 85.02 11.77Q85.80 10.90 85.80 9.94L85.80 9.94Q85.80 9.65 85.69 9.52Q85.58 9.38 85.30 9.38L85.30 9.38Q84.55 9.38 83.68 10.13Q82.80 10.87 82.07 12.02Q81.34 13.18 81.02 14.30L81.02 14.30ZM89.40 18Q88.61 18 88.10 17.29Q87.60 16.58 87.60 15.58L87.60 15.58Q87.60 14.69 87.97 13.38Q88.34 12.07 88.86 11.10Q89.38 10.13 89.71 10.13L89.71 10.13Q89.86 10.13 90.13 10.27Q90.41 10.42 90.60 10.61L90.60 10.61Q90.10 11.40 89.54 12.88Q88.99 14.35 88.99 15.43L88.99 15.43Q88.99 15.98 89.17 16.51Q89.35 17.04 89.86 17.04L89.86 17.04Q90.70 17.04 91.69 15.49Q92.69 13.94 93.84 11.57L93.84 11.57L94.22 10.78Q95.38 10.99 95.38 11.40L95.38 11.40Q95.38 11.45 95.27 11.72Q95.16 12 95.06 12.22L95.06 12.22Q94.51 13.44 94.14 14.51Q93.77 15.58 93.77 16.32L93.77 16.32Q93.77 17.28 94.56 17.28L94.56 17.28Q95.09 17.28 95.81 16.81Q96.53 16.34 97.27 15.46Q98.02 14.57 98.57 13.39L98.57 13.39L98.88 13.61Q98.38 14.88 97.57 15.88Q96.77 16.87 95.83 17.44Q94.90 18 94.06 18L94.06 18Q92.38 18 92.38 16.22L92.38 16.22Q92.38 15.74 92.54 15.02L92.54 15.02Q91.78 16.39 91.01 17.20Q90.24 18 89.40 18L89.40 18ZM102.26 17.90Q101.45 17.90 100.98 17.47Q100.51 17.04 100.51 16.34L100.51 16.34Q100.51 15.53 101.21 13.99L101.21 13.99Q101.52 13.20 101.68 12.73Q101.83 12.26 101.83 11.86L101.83 11.86Q101.83 11.26 101.56 10.91Q101.28 10.56 100.94 10.33Q100.61 10.10 100.49 10.03L100.49 10.03Q99.96 11.38 99.36 12.66Q98.76 13.94 98.35 14.64L98.35 14.64L98.14 14.23Q99.29 12 100.08 9.67L100.08 9.67Q99.84 9.43 99.84 9.10L99.84 9.10Q99.84 8.66 100.02 8.28Q100.20 7.90 100.45 7.68Q100.70 7.46 100.85 7.46L100.85 7.46Q101.18 7.46 101.18 8.04L101.18 8.04Q101.18 8.14 101.06 8.47Q100.94 8.81 100.92 8.93L100.92 8.93Q100.92 9.17 101.12 9.37Q101.33 9.58 101.78 9.89L101.78 9.89Q102.53 10.42 102.95 10.93Q103.37 11.45 103.37 12.26L103.37 12.26Q103.37 12.79 103.20 13.31Q103.03 13.82 102.70 14.66L102.70 14.66Q102.17 15.82 102.17 16.32L102.17 16.32Q102.17 17.04 102.89 17.04L102.89 17.04Q103.61 17.04 104.44 16.46Q105.26 15.89 105.96 15.04Q106.66 14.18 106.97 13.46L106.97 13.46L107.28 13.70Q106.54 15.36 105.12 16.63Q103.70 17.90 102.26 17.90L102.26 17.90ZM108.98 18.50Q107.42 18.50 106.70 17.57Q105.98 16.63 105.98 15.36L105.98 15.36Q105.98 14.40 106.32 14.00Q106.66 13.61 107.05 13.44Q107.45 13.27 107.52 13.20L107.52 13.20Q109.06 11.52 109.90 9.72L109.90 9.72L109.90 9.43Q109.90 8.62 110.17 8.21Q110.45 7.80 110.83 7.80L110.83 7.80Q111.02 7.80 111.12 7.88Q111.22 7.97 111.22 8.11L111.22 8.11Q111.22 8.21 111.14 8.51Q111.07 8.81 111.07 9.17L111.07 9.17Q111.07 9.65 111.20 10.19Q111.34 10.73 111.62 11.59L111.62 11.59Q111.96 12.62 112.14 13.39Q112.32 14.16 112.32 14.95L112.32 14.95Q112.32 15.58 112.18 16.13L112.18 16.13Q113.04 15.98 113.78 15.35Q114.53 14.71 115.20 13.42L115.20 13.42L115.42 13.66Q114.98 14.90 114.10 15.62Q113.21 16.34 112.06 16.51L112.06 16.51Q111.70 17.50 110.88 18Q110.06 18.50 108.98 18.50L108.98 18.50ZM110.66 16.10Q110.76 15.48 110.76 14.98L110.76 14.98Q110.76 14.26 110.64 13.54Q110.52 12.82 110.28 11.88L110.28 11.88Q110.06 10.92 110.02 10.63L110.02 10.63Q108.79 12.65 107.69 13.75L107.69 13.75Q108.07 14.59 108.85 15.24Q109.63 15.89 110.66 16.10L110.66 16.10ZM109.03 17.66Q110.14 17.66 110.54 16.49L110.54 16.49Q109.58 16.30 108.79 15.73Q108 15.17 107.59 14.50L107.59 14.50Q107.06 14.52 107.06 15.34L107.06 15.34Q107.06 16.25 107.60 16.96Q108.14 17.66 109.03 17.66L109.03 17.66Z" transform="translate(36, 9.36)"></path></svg>